<svg width="381" height="381" viewBox="0 0 381 381" fill="none" xmlns="http://www.w3.org/2000/svg">
<path d="M207.288 88.7451C209.79 158.783 292.515 153.949 294.025 194.082C302.656 154.381 224.247 148.037 207.288 88.7451Z" fill="url(#paint0_radial_424_132)"/>
<path d="M294.025 194.082C294.025 194.082 328.764 151.878 296.269 97.6345C263.775 43.3911 229.598 64.3204 229.598 64.3204C272.06 105.575 285.956 154.338 285.956 154.338C285.956 154.338 204.31 3.51767 138.243 64.5361C183.812 52.8848 207.244 88.745 207.244 88.745C207.719 101.864 210.999 112.393 216.048 121.024C210.999 112.35 207.719 101.864 207.244 88.745C224.204 148.037 302.613 154.381 293.982 194.082H294.025Z" fill="url(#paint1_radial_424_132)"/>
<path d="M296.788 186.013C301.405 178.03 307.965 163.444 307.965 144.845C307.965 129.31 303.39 113.775 294.371 98.7145C293.422 97.1178 292.43 95.6075 291.48 94.0972C281.469 96.298 273.14 100.829 266.279 107.129C281.9 132.762 287.942 153.389 288.028 153.692C289.668 160.553 289.495 165.386 289.495 165.386C289.495 165.386 284.533 156.324 284.015 155.331C283.799 154.9 273.874 136.819 258.382 115.846C253.764 122.017 250.01 129.181 247.076 136.905C252.081 140.616 257.217 144.068 262.179 147.434C280.002 159.474 295.45 169.917 296.745 185.97L296.788 186.013Z" fill="url(#paint2_linear_424_132)"/>
<path d="M292.255 207.243C222.218 209.746 227.051 292.47 186.918 293.981C226.619 302.611 232.963 224.202 292.255 207.243Z" fill="url(#paint3_radial_424_132)"/>
<path d="M186.918 293.981C186.918 293.981 229.122 328.719 283.366 296.225C337.609 263.731 316.68 229.553 316.68 229.553C275.425 272.016 226.662 285.911 226.662 285.911C226.662 285.911 377.482 204.266 316.464 138.198C328.115 183.768 292.255 207.2 292.255 207.2C279.137 207.675 268.607 210.954 259.977 216.003C268.65 210.954 279.137 207.675 292.255 207.2C232.963 224.159 226.619 302.568 186.918 293.938V293.981Z" fill="url(#paint4_radial_424_132)"/>
<path d="M194.989 296.744C202.972 301.361 217.558 307.92 236.157 307.92C251.692 307.92 267.227 303.346 282.287 294.327C283.884 293.378 285.395 292.385 286.905 291.436C284.704 281.424 280.173 273.096 273.873 266.234C248.24 281.856 227.612 287.897 227.31 287.983C220.449 289.623 215.616 289.451 215.616 289.451C215.616 289.451 224.678 284.488 225.671 283.97C226.102 283.755 244.183 273.829 265.156 258.337C258.985 253.72 251.821 249.966 244.097 247.031C240.386 252.037 236.934 257.172 233.568 262.135C221.528 279.957 211.085 295.406 195.032 296.7L194.989 296.744Z" fill="url(#paint5_linear_424_132)"/>
<path d="M173.757 292.213C171.254 222.175 88.5295 227.008 87.0191 186.876C78.3885 226.577 156.798 232.92 173.757 292.213Z" fill="url(#paint6_radial_424_132)"/>
<path d="M87.0178 186.918C87.0178 186.918 52.2796 229.122 84.7738 283.366C117.268 337.609 151.445 316.68 151.445 316.68C108.983 275.425 95.0874 226.662 95.0874 226.662C95.0874 226.662 176.733 377.483 242.8 316.464C197.231 328.115 173.799 292.255 173.799 292.255C173.324 279.137 170.044 268.607 164.995 259.977C170.044 268.65 173.324 279.137 173.799 292.255C156.84 232.963 78.4303 226.619 87.0609 186.918H87.0178Z" fill="url(#paint7_radial_424_132)"/>
<path d="M84.2558 194.946C79.6384 202.93 73.0791 217.515 73.0791 236.114C73.0791 251.649 77.6533 267.185 86.6723 282.202C87.6217 283.799 88.6142 285.309 89.5636 286.819C99.5751 284.618 107.904 280.087 114.765 273.787C99.1436 248.154 93.1021 227.527 93.0158 227.225C91.376 220.364 91.5486 215.53 91.5486 215.53C91.5486 215.53 96.5112 224.592 97.0291 225.585C97.2448 226.017 107.17 244.098 122.662 265.07C127.279 258.899 131.034 251.736 133.968 244.011C128.962 240.3 123.827 236.848 118.865 233.482C101.042 221.442 85.5935 210.999 84.2989 194.946H84.2558Z" fill="url(#paint8_linear_424_132)"/>
<path d="M88.7871 173.714C158.825 171.211 153.991 88.487 194.124 86.9766C154.423 78.346 148.079 156.755 88.7871 173.714Z" fill="url(#paint9_radial_424_132)"/>
<path d="M194.082 86.9753C194.082 86.9753 151.878 52.2371 97.6346 84.7314C43.3911 117.226 64.3204 151.403 64.3204 151.403C105.575 108.94 154.338 95.0449 154.338 95.0449C154.338 95.0449 3.51766 176.691 64.5361 242.758C52.8848 197.188 88.745 173.756 88.745 173.756C101.864 173.281 112.393 170.002 121.024 164.953C112.35 170.002 101.864 173.281 88.745 173.756C148.037 156.797 154.381 78.3878 194.082 87.0185V86.9753Z" fill="url(#paint10_radial_424_132)"/>
<path d="M186.055 84.2133C178.072 79.5959 163.486 73.0366 144.887 73.0366C129.352 73.0366 113.817 77.6109 98.7565 86.6299C97.1599 87.5793 95.6495 88.5718 94.1392 89.5211C96.34 99.5326 100.871 107.861 107.171 114.723C132.804 99.1011 153.432 93.0597 153.734 92.9734C160.595 91.3336 165.428 91.5061 165.428 91.5061C165.428 91.5061 156.366 96.4688 155.373 96.9866C154.942 97.2024 136.861 107.128 115.888 122.62C122.059 127.237 129.223 130.991 136.947 133.926C140.658 128.92 144.11 123.785 147.476 118.822C159.516 101 169.959 85.551 186.012 84.2564L186.055 84.2133Z" fill="url(#paint11_linear_424_132)"/>
<defs>
<radialGradient id="paint0_radial_424_132" cx="0" cy="0" r="1" gradientUnits="userSpaceOnUse" gradientTransform="translate(178.72 118.391) rotate(90) scale(107.322 107.322)">
<stop stop-color="#D3DD28"/>
<stop offset="0.02" stop-color="#CCDA2A"/>
<stop offset="0.14" stop-color="#AED033"/>
<stop offset="0.26" stop-color="#99C93A"/>
<stop offset="0.37" stop-color="#8DC53E"/>
<stop offset="0.48" stop-color="#89C440"/>
<stop offset="0.52" stop-color="#84C03F"/>
<stop offset="0.58" stop-color="#76B73E"/>
<stop offset="0.64" stop-color="#5FA73D"/>
<stop offset="0.7" stop-color="#3F923B"/>
<stop offset="0.76" stop-color="#167638"/>
<stop offset="0.78" stop-color="#086D38"/>
<stop offset="0.98" stop-color="#0A5229"/>
<stop offset="1" stop-color="#0B5028"/>
</radialGradient>
<radialGradient id="paint1_radial_424_132" cx="0" cy="0" r="1" gradientUnits="userSpaceOnUse" gradientTransform="translate(336.229 72.1742) rotate(90) scale(186.939 186.939)">
<stop stop-color="#E5E319"/>
<stop offset="0.19" stop-color="#B7D32C"/>
<stop offset="0.41" stop-color="#89C440"/>
<stop offset="0.47" stop-color="#84C03F"/>
<stop offset="0.54" stop-color="#76B73E"/>
<stop offset="0.61" stop-color="#5FA73D"/>
<stop offset="0.68" stop-color="#3F923B"/>
<stop offset="0.76" stop-color="#167638"/>
<stop offset="0.78" stop-color="#086D38"/>
<stop offset="0.98" stop-color="#0A5229"/>
<stop offset="1" stop-color="#0B5028"/>
</radialGradient>
<linearGradient id="paint2_linear_424_132" x1="241.034" y1="100.354" x2="302.7" y2="146.528" gradientUnits="userSpaceOnUse">
<stop stop-color="#F6EC45"/>
<stop offset="0.11" stop-color="#F0E944"/>
<stop offset="0.27" stop-color="#DFE244"/>
<stop offset="0.44" stop-color="#C3D744"/>
<stop offset="0.63" stop-color="#9DC843"/>
<stop offset="0.78" stop-color="#78B943"/>
</linearGradient>
<radialGradient id="paint3_radial_424_132" cx="0" cy="0" r="1" gradientUnits="userSpaceOnUse" gradientTransform="translate(262.609 178.676) rotate(-180) scale(107.322 107.322)">
<stop stop-color="#D3DD28"/>
<stop offset="0.02" stop-color="#CCDA2A"/>
<stop offset="0.14" stop-color="#AED033"/>
<stop offset="0.26" stop-color="#99C93A"/>
<stop offset="0.37" stop-color="#8DC53E"/>
<stop offset="0.48" stop-color="#89C440"/>
<stop offset="0.52" stop-color="#84C03F"/>
<stop offset="0.58" stop-color="#76B73E"/>
<stop offset="0.64" stop-color="#5FA73D"/>
<stop offset="0.7" stop-color="#3F923B"/>
<stop offset="0.76" stop-color="#167638"/>
<stop offset="0.78" stop-color="#086D38"/>
<stop offset="0.98" stop-color="#0A5229"/>
<stop offset="1" stop-color="#0B5028"/>
</radialGradient>
<radialGradient id="paint4_radial_424_132" cx="0" cy="0" r="1" gradientUnits="userSpaceOnUse" gradientTransform="translate(308.783 336.228) rotate(-180) scale(186.939 186.939)">
<stop stop-color="#E5E319"/>
<stop offset="0.19" stop-color="#B7D32C"/>
<stop offset="0.41" stop-color="#89C440"/>
<stop offset="0.47" stop-color="#84C03F"/>
<stop offset="0.54" stop-color="#76B73E"/>
<stop offset="0.61" stop-color="#5FA73D"/>
<stop offset="0.68" stop-color="#3F923B"/>
<stop offset="0.76" stop-color="#167638"/>
<stop offset="0.78" stop-color="#086D38"/>
<stop offset="0.98" stop-color="#0A5229"/>
<stop offset="1" stop-color="#0B5028"/>
</radialGradient>
<linearGradient id="paint5_linear_424_132" x1="280.648" y1="241.033" x2="234.474" y2="302.699" gradientUnits="userSpaceOnUse">
<stop stop-color="#F6EC45"/>
<stop offset="0.11" stop-color="#F0E944"/>
<stop offset="0.27" stop-color="#DFE244"/>
<stop offset="0.44" stop-color="#C3D744"/>
<stop offset="0.63" stop-color="#9DC843"/>
<stop offset="0.78" stop-color="#78B943"/>
</linearGradient>
<radialGradient id="paint6_radial_424_132" cx="0" cy="0" r="1" gradientUnits="userSpaceOnUse" gradientTransform="translate(202.281 262.61) rotate(-90) scale(107.322 107.322)">
<stop stop-color="#D3DD28"/>
<stop offset="0.02" stop-color="#CCDA2A"/>
<stop offset="0.14" stop-color="#AED033"/>
<stop offset="0.26" stop-color="#99C93A"/>
<stop offset="0.37" stop-color="#8DC53E"/>
<stop offset="0.48" stop-color="#89C440"/>
<stop offset="0.52" stop-color="#84C03F"/>
<stop offset="0.58" stop-color="#76B73E"/>
<stop offset="0.64" stop-color="#5FA73D"/>
<stop offset="0.7" stop-color="#3F923B"/>
<stop offset="0.76" stop-color="#167638"/>
<stop offset="0.78" stop-color="#086D38"/>
<stop offset="0.98" stop-color="#0A5229"/>
<stop offset="1" stop-color="#0B5028"/>
</radialGradient>
<radialGradient id="paint7_radial_424_132" cx="0" cy="0" r="1" gradientUnits="userSpaceOnUse" gradientTransform="translate(44.7709 308.783) rotate(-90) scale(186.939 186.939)">
<stop stop-color="#E5E319"/>
<stop offset="0.19" stop-color="#B7D32C"/>
<stop offset="0.41" stop-color="#89C440"/>
<stop offset="0.47" stop-color="#84C03F"/>
<stop offset="0.54" stop-color="#76B73E"/>
<stop offset="0.61" stop-color="#5FA73D"/>
<stop offset="0.68" stop-color="#3F923B"/>
<stop offset="0.76" stop-color="#167638"/>
<stop offset="0.78" stop-color="#086D38"/>
<stop offset="0.98" stop-color="#0A5229"/>
<stop offset="1" stop-color="#0B5028"/>
</radialGradient>
<linearGradient id="paint8_linear_424_132" x1="139.966" y1="280.648" x2="78.3006" y2="234.475" gradientUnits="userSpaceOnUse">
<stop stop-color="#F6EC45"/>
<stop offset="0.11" stop-color="#F0E944"/>
<stop offset="0.27" stop-color="#DFE244"/>
<stop offset="0.44" stop-color="#C3D744"/>
<stop offset="0.63" stop-color="#9DC843"/>
<stop offset="0.78" stop-color="#78B943"/>
</linearGradient>
<radialGradient id="paint9_radial_424_132" cx="0" cy="0" r="1" gradientUnits="userSpaceOnUse" gradientTransform="translate(118.39 202.282) scale(107.322 107.322)">
<stop stop-color="#D3DD28"/>
<stop offset="0.02" stop-color="#CCDA2A"/>
<stop offset="0.14" stop-color="#AED033"/>
<stop offset="0.26" stop-color="#99C93A"/>
<stop offset="0.37" stop-color="#8DC53E"/>
<stop offset="0.48" stop-color="#89C440"/>
<stop offset="0.52" stop-color="#84C03F"/>
<stop offset="0.58" stop-color="#76B73E"/>
<stop offset="0.64" stop-color="#5FA73D"/>
<stop offset="0.7" stop-color="#3F923B"/>
<stop offset="0.76" stop-color="#167638"/>
<stop offset="0.78" stop-color="#086D38"/>
<stop offset="0.98" stop-color="#0A5229"/>
<stop offset="1" stop-color="#0B5028"/>
</radialGradient>
<radialGradient id="paint10_radial_424_132" cx="0" cy="0" r="1" gradientUnits="userSpaceOnUse" gradientTransform="translate(72.2174 44.7285) scale(186.939 186.939)">
<stop stop-color="#E5E319"/>
<stop offset="0.19" stop-color="#B7D32C"/>
<stop offset="0.41" stop-color="#89C440"/>
<stop offset="0.47" stop-color="#84C03F"/>
<stop offset="0.54" stop-color="#76B73E"/>
<stop offset="0.61" stop-color="#5FA73D"/>
<stop offset="0.68" stop-color="#3F923B"/>
<stop offset="0.76" stop-color="#167638"/>
<stop offset="0.78" stop-color="#086D38"/>
<stop offset="0.98" stop-color="#0A5229"/>
<stop offset="1" stop-color="#0B5028"/>
</radialGradient>
<linearGradient id="paint11_linear_424_132" x1="100.353" y1="139.924" x2="146.527" y2="78.2581" gradientUnits="userSpaceOnUse">
<stop stop-color="#F6EC45"/>
<stop offset="0.11" stop-color="#F0E944"/>
<stop offset="0.27" stop-color="#DFE244"/>
<stop offset="0.44" stop-color="#C3D744"/>
<stop offset="0.63" stop-color="#9DC843"/>
<stop offset="0.78" stop-color="#78B943"/>
</linearGradient>
</defs>
</svg>
